<svg xmlns="http://www.w3.org/2000/svg" version="1.1" xmlns:xlink="http://www.w3.org/1999/xlink" xmlns:svgjs="http://svgjs.dev/svgjs" width="1500" height="284" viewBox="0 0 1500 284"><g transform="matrix(1,0,0,1,-0.9090909090909918,-1.4390329810271396)"><svg viewBox="0 0 396 75" data-background-color="#e9efe7" preserveAspectRatio="xMidYMid meet" height="284" width="1500" xmlns="http://www.w3.org/2000/svg" xmlns:xlink="http://www.w3.org/1999/xlink"><g id="tight-bounds" transform="matrix(1,0,0,1,0.2400000000000091,0.38002631541209553)"><svg viewBox="0 0 395.52 74.23994736917581" height="74.23994736917581" width="395.52"><g><svg viewBox="0 0 473.21925280947323 88.8242628" height="74.23994736917581" width="395.52"><g><svg viewBox="0 0 473.21925280947323 88.8242628" height="88.8242628" width="473.21925280947323"><g id="textblocktransform"><svg viewBox="0 0 473.21925280947323 88.8242628" height="88.8242628" width="473.21925280947323" id="textblock"><g><svg viewBox="0 0 473.21925280947323 65.2054" height="65.2054" width="473.21925280947323"><g><svg><g></g><g></g></svg></g><g><svg><g></g><g><svg></svg></g></svg></g><g id="text-0"><svg viewBox="0 0 473.21925280947323 65.2054" height="65.2054" width="473.21925280947323"><g transform="matrix(1,0,0,1,0,12.452699999999993)"><svg width="166.05000000000004" viewBox="0.4 -39.6 166.04 40.300000000000004" height="40.30000000000001" data-palette-color="#2a2c35"><path d="M16.5 0.7Q11.7 0.7 7.43-0.13 3.15-0.95 0.85-2L0.85-2 0.85-11.9 11.85-11.9Q11.85-10.35 12.55-9.65 13.25-8.95 15.1-8.95L15.1-8.95Q16.65-8.95 17.32-9.43 18-9.9 18-10.85L18-10.85Q18-11.65 17.35-12.23 16.7-12.8 15.1-13.4L15.1-13.4 10.8-14.9Q5.25-17 2.83-19.85 0.4-22.7 0.4-27.55L0.4-27.55Q0.4-33.45 4.28-36.52 8.15-39.6 17.2-39.6L17.2-39.6Q21.55-39.6 25.38-38.73 29.2-37.85 31.55-36.4L31.55-36.4 31.55-27.45 21.55-27.45Q21.55-29.95 18.45-29.95L18.45-29.95Q16.95-29.95 16.32-29.58 15.7-29.2 15.7-28.25L15.7-28.25Q15.7-27.4 16.43-26.9 17.15-26.4 18.8-25.85L18.8-25.85 23.15-24.35Q28.45-22.55 30.88-19.68 33.3-16.8 33.3-12.15L33.3-12.15Q33.3-5.8 29.03-2.55 24.75 0.7 16.5 0.7L16.5 0.7ZM53.5 0.7Q44.35 0.7 39.37-4.1 34.4-8.9 34.4-19.45L34.4-19.45Q34.4-30 39.37-34.8 44.35-39.6 53.5-39.6L53.5-39.6Q62.65-39.6 67.62-34.8 72.6-30 72.6-19.45L72.6-19.45Q72.6-8.9 67.62-4.1 62.65 0.7 53.5 0.7L53.5 0.7ZM53.5-8.2Q55.2-8.2 56.05-9.1 56.9-10 56.9-11.9L56.9-11.9 56.9-27Q56.9-28.9 56.05-29.8 55.2-30.7 53.5-30.7L53.5-30.7Q51.8-30.7 50.95-29.8 50.1-28.9 50.1-27L50.1-27 50.1-11.9Q50.1-9.95 50.95-9.08 51.8-8.2 53.5-8.2L53.5-8.2ZM105.25 0L74.3 0 74.3-8.2 76.8-8.2 76.8-30.7 74.3-30.7 74.3-38.9 95.4-38.9 95.4-30.7 90.8-30.7 90.8-8.2 95.3-8.2 95.3-12.8 105.25-12.8 105.25 0ZM125.94 0L106.94 0 106.94-8.2 109.44-8.2 109.44-30.7 106.94-30.7 106.94-38.9 125.94-38.9 125.94-30.7 123.44-30.7 123.44-8.2 125.94-8.2 125.94 0ZM127.94 0L127.94-8.2 130.44-8.2 130.44-30.65 127.94-30.65 127.94-38.9 148.24-38.9Q156.59-38.9 161.52-34.33 166.44-29.75 166.44-19.45L166.44-19.45Q166.44-9.15 161.52-4.58 156.59 0 148.24 0L148.24 0 127.94 0ZM144.44-8.2L147.34-8.2Q149.04-8.2 149.89-9.1 150.74-10 150.74-11.9L150.74-11.9 150.74-27Q150.74-30.7 147.34-30.7L147.34-30.7 144.44-30.7 144.44-8.2Z" opacity="1" transform="matrix(1,0,0,1,0,0)" fill="#2a2c35" class="undefined-tk-0"></path></svg></g><g><svg xmlns="http://www.w3.org/2000/svg" xmlns:xlink="http://www.w3.org/1999/xlink" version="1.1" x="181.44460000000004" y="0" viewBox="4.079932931019735 1.8889622642087467 92.31560299150519 97.11103773579126" enable-background="new 0 0 100 100" xml:space="preserve" height="65.2054" width="61.985495775252666" class="icon-dxe-0" data-fill-palette-color="accent" id="dxe-0"><g fill="#2a2c35" data-fill-palette-color="accent"><path d="M96.187 73.923A1.6 1.6 0 0 0 96.006 73.648L42.835 2.751C42.695 2.557 42.514 2.261 42.296 2.13 42.296 2.13 42.296 2 42.294 2H42.293C42.231 2 42.166 2.056 42.099 2.027 41.693 1.847 41.255 1.86 40.863 1.969 40.86 1.97 40.86 2 40.86 2H40.857A0.6 0.6 0 0 0 40.592 2.047S40.592 2 40.59 2H40.589C40.269 2 39.992 2.486 39.805 2.812 39.782 2.847 39.763 2.93 39.743 2.972L4.289 73.901A2 2 0 0 0 4.151 74.255C4.075 74.516 4.061 74.785 4.104 75.043 4.145 75.305 4.243 75.562 4.4 75.792 4.469 75.891 4.548 75.987 4.639 76.072L26.772 98.342C27.035 98.614 27.385 99 27.787 99H27.849C27.921 99 27.994 98.883 28.064 98.883 28.274 98.883 28.479 98.782 28.668 98.712L95.12 76.527C95.222 76.498 95.321 76.439 95.416 76.39A2 2 0 0 0 95.929 75.989 1.86 1.86 0 0 0 96.381 74.525 1.8 1.8 0 0 0 96.187 73.923M26.784 93.108L8.09 74.41 38.002 14.582zM30.267 94.302L42.54 8.384 91.634 73.844z" fill="#2a2c35" data-fill-palette-color="accent"></path></g></svg></g><g transform="matrix(1,0,0,1,258.82469577525274,12.452699999999997)"><svg width="214.39455703422053" viewBox="0.4 -39.6 214.3845570342205 40.300000000000004" height="40.300000000000004" data-palette-color="#2a2c35"><g transform="matrix(1,0,0,1,0,0)"><g><svg width="21.163038022813684" viewBox="2.59 -36.86 90.75 37.36" height="8.712" data-palette-color="#2a2c35" id="scriptelement" x="193.62151901140683" y="-8.712"><path d="M16.39 0.5L16.39 0.5Q12.41 0.5 9.31-0.88 6.21-2.25 4.43-4.68 2.65-7.1 2.59-10.28L2.59-10.28 10.33-10.28Q10.4-8.95 11.21-7.95 12.02-6.94 13.37-6.39 14.72-5.84 16.41-5.84L16.41-5.84Q18.16-5.84 19.51-6.46 20.86-7.08 21.63-8.19 22.39-9.29 22.39-10.72L22.39-10.72Q22.39-12.18 21.58-13.31 20.77-14.44 19.27-15.07 17.77-15.71 15.71-15.71L15.71-15.71 12.32-15.71 12.32-21.36 15.71-21.36Q17.45-21.36 18.79-21.96 20.13-22.57 20.88-23.64 21.63-24.72 21.63-26.15L21.63-26.15Q21.63-27.52 20.98-28.56 20.33-29.6 19.17-30.18 18-30.77 16.46-30.77L16.46-30.77Q14.9-30.77 13.6-30.21 12.3-29.65 11.52-28.62 10.74-27.59 10.69-26.21L10.69-26.21 3.32-26.21Q3.37-29.35 5.11-31.75 6.85-34.14 9.81-35.5 12.77-36.86 16.5-36.86L16.5-36.86Q20.26-36.86 23.08-35.49 25.91-34.13 27.48-31.81 29.05-29.49 29.03-26.62L29.03-26.62Q29.05-23.56 27.14-21.52 25.23-19.48 22.18-18.93L22.18-18.93 22.18-18.64Q26.19-18.13 28.29-15.86 30.4-13.6 30.38-10.21L30.38-10.21Q30.4-7.1 28.6-4.69 26.79-2.27 23.63-0.89 20.47 0.5 16.39 0.5ZM61.84 0L35.92 0 35.92-5.54 48.86-17.52Q50.51-19.12 51.64-20.4 52.77-21.68 53.35-22.91 53.94-24.15 53.94-25.59L53.94-25.59Q53.94-27.18 53.21-28.35 52.48-29.51 51.22-30.14 49.96-30.77 48.36-30.77L48.36-30.77Q46.69-30.77 45.45-30.1 44.21-29.42 43.53-28.16 42.86-26.9 42.86-25.16L42.86-25.16 35.56-25.16Q35.56-28.73 37.18-31.36 38.79-33.98 41.71-35.42 44.62-36.86 48.42-36.86L48.42-36.86Q52.32-36.86 55.23-35.48 58.13-34.11 59.75-31.68 61.36-29.24 61.36-26.1L61.36-26.1Q61.36-24.04 60.55-22.03 59.75-20.03 57.69-17.59 55.63-15.15 51.88-11.74L51.88-11.74 46.57-6.53 46.57-6.29 61.84-6.29 61.84 0ZM93.34 0L67.41 0 67.41-5.54 80.36-17.52Q82.01-19.12 83.14-20.4 84.26-21.68 84.85-22.91 85.44-24.15 85.44-25.59L85.44-25.59Q85.44-27.18 84.71-28.35 83.98-29.51 82.72-30.14 81.46-30.77 79.86-30.77L79.86-30.77Q78.19-30.77 76.95-30.1 75.71-29.42 75.03-28.16 74.36-26.9 74.36-25.16L74.36-25.16 67.06-25.16Q67.06-28.73 68.67-31.36 70.29-33.98 73.2-35.42 76.11-36.86 79.91-36.86L79.91-36.86Q83.82-36.86 86.72-35.48 89.63-34.11 91.24-31.68 92.86-29.24 92.86-26.1L92.86-26.1Q92.86-24.04 92.05-22.03 91.24-20.03 89.18-17.59 87.12-15.15 83.38-11.74L83.38-11.74 78.07-6.53 78.07-6.29 93.34-6.29 93.34 0Z" opacity="1" transform="matrix(1,0,0,1,0,0)" fill="#2a2c35" class="undefined-123" id="tk-123"></path></svg></g></g><path d="M16.5 0.7Q11.7 0.7 7.43-0.13 3.15-0.95 0.85-2L0.85-2 0.85-11.9 11.85-11.9Q11.85-10.35 12.55-9.65 13.25-8.95 15.1-8.95L15.1-8.95Q16.65-8.95 17.32-9.43 18-9.9 18-10.85L18-10.85Q18-11.65 17.35-12.23 16.7-12.8 15.1-13.4L15.1-13.4 10.8-14.9Q5.25-17 2.83-19.85 0.4-22.7 0.4-27.55L0.4-27.55Q0.4-33.45 4.28-36.52 8.15-39.6 17.2-39.6L17.2-39.6Q21.55-39.6 25.38-38.73 29.2-37.85 31.55-36.4L31.55-36.4 31.55-27.45 21.55-27.45Q21.55-29.95 18.45-29.95L18.45-29.95Q16.95-29.95 16.32-29.58 15.7-29.2 15.7-28.25L15.7-28.25Q15.7-27.4 16.43-26.9 17.15-26.4 18.8-25.85L18.8-25.85 23.15-24.35Q28.45-22.55 30.88-19.68 33.3-16.8 33.3-12.15L33.3-12.15Q33.3-5.8 29.03-2.55 24.75 0.7 16.5 0.7L16.5 0.7ZM72-38.9L72-26.8 63.4-26.8 63.4-30.7 60.2-30.7 60.2-8.2 63.7-8.2 63.7 0 42.7 0 42.7-8.2 46.2-8.2 46.2-30.7 43-30.7 43-26.8 34.4-26.8 34.4-38.9 72-38.9ZM96.45-38.9L104.9-8.2 106.9-8.2 106.9 0 87.3 0 87.3-8.2 90.3-8.2 89.5-12.2 82.7-12.2 81.9-8.2 84.9-8.2 84.9 0 67.8 0 67.8-8.2 69.8-8.2 78.25-38.9 96.45-38.9ZM85.85-27.45L83.8-17.5 88.4-17.5 86.35-27.45 85.85-27.45ZM126.39 0.7Q116.94 0.7 111.82-4.1 106.69-8.9 106.69-19.45L106.69-19.45Q106.69-39.6 126.29-39.6L126.29-39.6Q131.04-39.6 135.12-38.45 139.19-37.3 141.19-35.9L141.19-35.9 141.19-23.4 129.19-23.4 129.19-27Q129.19-28.9 128.34-29.8 127.49-30.7 125.79-30.7L125.79-30.7Q124.09-30.7 123.24-29.8 122.39-28.9 122.39-27L122.39-27 122.39-11.9Q122.39-10 123.24-9.1 124.09-8.2 125.79-8.2L125.79-8.2Q127.49-8.2 128.34-9.1 129.19-10 129.19-11.9L129.19-11.9 129.19-15.95 141.19-15.95 141.19-3Q139.14-1.6 135.12-0.45 131.09 0.7 126.39 0.7L126.39 0.7ZM171.94-23.8L180.54-8.2 183.04-8.2 183.04 0 169.39 0 161.89-15.5 159.59-13.6 159.59-8.2 161.99-8.2 161.99 0 143.09 0 143.09-8.2 145.59-8.2 145.59-30.7 143.09-30.7 143.09-38.9 161.99-38.9 161.99-30.7 159.59-30.7 159.59-24.1 167.34-30.7 164.19-30.7 164.19-38.9 182.79-38.9 182.79-30.7 180.29-30.7 171.94-23.8Z" opacity="1" transform="matrix(1,0,0,1,0,0)" fill="#2a2c35" class="undefined-tk-1"></path></svg></g></svg></g></svg></g><g transform="matrix(1,0,0,1,0,74.7192628)"><svg viewBox="0 0 473.21925280947323 14.105000000000002" height="14.105000000000002" width="473.21925280947323"><g transform="matrix(1,0,0,1,0,0)"><svg width="473.21925280947323" viewBox="1.95 -31.98 1089.3899999999999 32.47" height="14.105000000000002" data-palette-color="#2a2c35"><path d="M24.71-22.66L24.71-22.66Q24.71-26.37 21.19-28.17L21.19-28.17Q18.9-29.3 15.67-29.3L15.67-29.3 1.95-29.3 1.95-28.03 5.86-28.03 5.86-1.27 1.95-1.27 1.95 0 15.82 0Q22.12 0 25.05-4L25.05-4Q26.56-6.1 26.56-8.59L26.56-8.59Q26.56-12.5 23.1-14.65L23.1-14.65Q21.48-15.58 19.38-15.97L19.38-15.97Q22.9-17.29 24.22-20.41L24.22-20.41Q24.71-21.58 24.71-22.66ZM10.06-28.03L14.5-28.03Q19.53-28.03 20.21-23.58L20.21-23.58Q20.31-22.95 20.31-22.27L20.31-22.27Q20.31-19.09 17.82-17.48L17.82-17.48Q16.36-16.55 14.4-16.55L14.4-16.55 10.06-16.55 10.06-28.03ZM10.06-15.23L15.33-15.23Q19.78-15.23 21.29-11.47L21.29-11.47Q21.88-10.11 21.88-8.5L21.88-8.5Q21.88-4.74 19.43-2.64L19.43-2.64Q17.82-1.27 15.58-1.27L15.58-1.27 10.06-1.27 10.06-15.23ZM83.8-1.22L83.8-1.22 81.36-1.22 81.36-20.75 73.69-20.75 73.69-19.53 77.7-19.53 77.7-8.98Q77.7-4.59 74.62-2.54L74.62-2.54Q73.25-1.61 71.79-1.61L71.79-1.61Q67.78-1.61 67.15-5.71L67.15-5.71Q67.05-6.4 67.05-7.18L67.05-7.18 67.05-20.75 59.63-20.75 59.63-19.53 63.39-19.53 63.39-7.91Q63.44 0.44 70.37 0.49L70.37 0.49Q74.03 0.49 76.38-2.49L76.38-2.49Q77.26-3.61 77.79-4.98L77.79-4.98 78.14 0 85.02 0Q85.02-1.07 84.29-1.17L84.29-1.17Q84.09-1.22 83.8-1.22ZM125.51-0.83L125.51-0.83Q128.88-0.83 130.05-2.88L130.05-2.88Q130.49-3.61 130.49-4.49L130.49-4.49Q130.49-6.54 127.51-8.01L127.51-8.01Q126.88-8.35 125.41-8.98L125.41-8.98Q121.41-10.64 120.09-12.11L120.09-12.11Q118.67-13.72 118.67-15.87L118.67-15.87Q118.67-19.24 122.38-20.61L122.38-20.61Q124.09-21.24 126.1-21.24L126.1-21.24Q129.32-21.24 131.66-19.87L131.66-19.87Q131.66-21.29 132.35-21.48L132.35-21.48Q132.64-21.53 132.98-21.53L132.98-21.53 132.98-15.43 131.71-15.43Q131.61-19.92 126.73-19.97L126.73-19.97Q123.07-19.97 122.19-17.82L122.19-17.82Q121.95-17.24 121.95-16.6L121.95-16.6Q121.95-14.5 124.97-13.04L124.97-13.04Q125.66-12.7 127.12-12.11L127.12-12.11Q131.08-10.5 132.39-9.03L132.39-9.03Q133.81-7.47 133.81-5.32L133.81-5.32Q133.81-1.37 129.61-0.05L129.61-0.05Q128 0.49 126.1 0.49L126.1 0.49Q122.58 0.44 119.99-1.27L119.99-1.27Q119.99 0 119.36 0.2L119.36 0.2Q119.06 0.24 118.67 0.24L118.67 0.24 118.67-7.18 120.04-7.18Q120.14-0.88 125.51-0.83ZM177.13-1.22L177.13-1.22 174.69-1.22 174.69-20.75 167.12-20.75 167.12-19.53 171.03-19.53 171.03-4.15Q171.03-1.9 169.51-1.42L169.51-1.42Q168.78-1.22 167.12-1.22L167.12-1.22 167.12 0 178.35 0Q178.35-1.07 177.62-1.17L177.62-1.17Q177.38-1.22 177.13-1.22ZM175.28-27.88L175.28-27.88Q175.28-29.59 173.76-30.32L173.76-30.32Q173.18-30.57 172.64-30.57L172.64-30.57Q170.93-30.57 170.2-29L170.2-29Q169.95-28.47 169.95-27.88L169.95-27.88Q169.95-26.07 171.57-25.39L171.57-25.39Q172.1-25.2 172.64-25.2L172.64-25.2Q174.35-25.2 175.03-26.76L175.03-26.76Q175.28-27.29 175.28-27.88ZM220.7-1.22L220.7-1.22 218.5-1.22 218.5-11.77Q218.65-16.31 221.72-18.31L221.72-18.31Q223.04-19.14 224.41-19.14L224.41-19.14Q227.39-19.14 228.46-16.36L228.46-16.36Q228.9-15.23 228.9-13.82L228.9-13.82 228.9-4.15Q228.9-1.9 227.63-1.46L227.63-1.46Q226.9-1.22 225.24-1.22L225.24-1.22 225.24 0 236.22 0Q236.22-1.07 235.49-1.17L235.49-1.17Q235.3-1.22 235-1.22L235-1.22 232.56-1.22 232.56-13.33Q232.56-18.21 229.19-20.31L229.19-20.31Q227.63-21.24 225.82-21.24L225.82-21.24Q222.21-21.24 219.87-18.36L219.87-18.36Q218.99-17.24 218.45-15.87L218.45-15.87 218.26-20.75 211.18-20.75 211.18-19.53 214.84-19.53 214.84-4.15Q214.84-1.9 213.57-1.46L213.57-1.46Q212.84-1.22 211.18-1.22L211.18-1.22 211.18 0 221.92 0Q221.92-1.07 221.19-1.17L221.19-1.17Q220.99-1.22 220.7-1.22ZM279.5-20.02L279.5-20.02Q282.91-20.02 284.04-17.14L284.04-17.14Q284.43-16.21 284.43-15.14L284.43-15.14Q284.43-12.7 282.08-12.16L282.08-12.16Q280.86-11.91 278.62-11.96L278.62-11.96 273.44-12.11Q273.69-17.72 277.1-19.43L277.1-19.43Q278.23-20.02 279.5-20.02ZM287.99-4.69L287.99-4.69 286.77-5.13Q285.06-1.42 281.25-0.93L281.25-0.93Q280.77-0.88 280.33-0.88L280.33-0.88Q275.2-0.88 273.88-6.98L273.88-6.98Q273.49-8.69 273.44-10.74L273.44-10.74 279.3-10.64Q285.26-10.55 286.97-11.77L286.97-11.77Q288.29-12.74 288.29-14.55L288.29-14.55Q288.29-17.87 284.92-19.82L284.92-19.82Q282.52-21.24 279.4-21.24L279.4-21.24Q273.3-21.24 270.66-16.16L270.66-16.16Q269.29-13.53 269.29-10.21L269.29-10.21Q269.29-4.15 273.64-1.22L273.64-1.22Q276.23 0.49 279.55 0.49L279.55 0.49Q284.82 0.49 287.31-3.32L287.31-3.32Q287.7-4 287.99-4.69ZM329.17-0.83L329.17-0.83Q332.53-0.83 333.71-2.88L333.71-2.88Q334.15-3.61 334.15-4.49L334.15-4.49Q334.15-6.54 331.17-8.01L331.17-8.01Q330.53-8.35 329.07-8.98L329.07-8.98Q325.06-10.64 323.75-12.11L323.75-12.11Q322.33-13.72 322.33-15.87L322.33-15.87Q322.33-19.24 326.04-20.61L326.04-20.61Q327.75-21.24 329.75-21.24L329.75-21.24Q332.97-21.24 335.32-19.87L335.32-19.87Q335.32-21.29 336-21.48L336-21.48Q336.29-21.53 336.64-21.53L336.64-21.53 336.64-15.43 335.37-15.43Q335.27-19.92 330.39-19.97L330.39-19.97Q326.72-19.97 325.85-17.82L325.85-17.82Q325.6-17.24 325.6-16.6L325.6-16.6Q325.6-14.5 328.63-13.04L328.63-13.04Q329.31-12.7 330.78-12.11L330.78-12.11Q334.73-10.5 336.05-9.03L336.05-9.03Q337.47-7.47 337.47-5.32L337.47-5.32Q337.47-1.37 333.27-0.05L333.27-0.05Q331.66 0.49 329.75 0.49L329.75 0.49Q326.24 0.44 323.65-1.27L323.65-1.27Q323.65 0 323.01 0.2L323.01 0.2Q322.72 0.24 322.33 0.24L322.33 0.24 322.33-7.18 323.7-7.18Q323.79-0.88 329.17-0.83ZM378.59-0.83L378.59-0.83Q381.96-0.83 383.13-2.88L383.13-2.88Q383.57-3.61 383.57-4.49L383.57-4.49Q383.57-6.54 380.59-8.01L380.59-8.01Q379.96-8.35 378.49-8.98L378.49-8.98Q374.49-10.64 373.17-12.11L373.17-12.11Q371.75-13.72 371.75-15.87L371.75-15.87Q371.75-19.24 375.47-20.61L375.47-20.61Q377.17-21.24 379.18-21.24L379.18-21.24Q382.4-21.24 384.74-19.87L384.74-19.87Q384.74-21.29 385.43-21.48L385.43-21.48Q385.72-21.53 386.06-21.53L386.06-21.53 386.06-15.43 384.79-15.43Q384.69-19.92 379.81-19.97L379.81-19.97Q376.15-19.97 375.27-17.82L375.27-17.82Q375.03-17.24 375.03-16.6L375.03-16.6Q375.03-14.5 378.05-13.04L378.05-13.04Q378.74-12.7 380.2-12.11L380.2-12.11Q384.16-10.5 385.48-9.03L385.48-9.03Q386.89-7.47 386.89-5.32L386.89-5.32Q386.89-1.37 382.69-0.05L382.69-0.05Q381.08 0.49 379.18 0.49L379.18 0.49Q375.66 0.44 373.07-1.27L373.07-1.27Q373.07 0 372.44 0.2L372.44 0.2Q372.14 0.24 371.75 0.24L371.75 0.24 371.75-7.18 373.12-7.18Q373.22-0.88 378.59-0.83ZM469.19-24.61L469.19-24.61Q469.19-27.59 471.58-28.37L471.58-28.37Q472.17-28.56 472.8-28.56L472.8-28.56Q475.39-28.56 476.17-26.37L476.17-26.37Q476.41-25.63 476.41-24.9L476.41-24.9Q476.41-22.61 474.02-20.8L474.02-20.8Q472.65-19.78 470.85-19.29L470.85-19.29Q469.19-22.61 469.19-24.61ZM471.29-0.98L471.29-0.98Q465.82-0.98 464.4-6.45L464.4-6.45Q464.01-8.01 464.01-9.86L464.01-9.86Q464.01-14.16 466.75-16.11L466.75-16.11Q467.48-16.6 468.21-16.85L468.21-16.85Q471.48-10.69 477.73-3.32L477.73-3.32Q474.9-0.98 471.29-0.98ZM483.84-15.58L483.84-15.58 483.79-15.58 483.93-15.58 485.45-15.63Q486.57-15.63 486.72-16.21L486.72-16.21Q486.81-16.55 486.81-16.94L486.81-16.94 479.78-16.94 479.78-15.67 482.47-15.67Q482.47-10.25 480.13-6.2L480.13-6.2Q474.31-13.04 471.43-18.21L471.43-18.21Q475.49-19.34 477.15-22.46L477.15-22.46Q477.78-23.68 477.78-24.9L477.78-24.9Q477.78-28.08 475-29.3L475-29.3Q473.92-29.79 472.7-29.79L472.7-29.79Q468.11-29.79 466.55-26.61L466.55-26.61Q465.92-25.29 465.92-23.78L465.92-23.78Q465.97-21.53 467.67-17.92L467.67-17.92Q461.96-16.36 460.35-11.72L460.35-11.72Q459.86-10.25 459.86-8.59L459.86-8.59Q459.86-4.15 463.23-1.56L463.23-1.56Q465.92 0.49 469.72 0.49L469.72 0.49Q475.1 0.44 478.51-2.39L478.51-2.39Q479.25-1.51 480.66 0L480.66 0 487.55 0Q487.55-1.12 486.77-1.22L486.77-1.22Q486.57-1.27 486.33-1.27L486.33-1.27 484.52-1.27Q483.35-2.54 481.05-5.13L481.05-5.13Q483.84-9.42 483.84-15.58ZM556.86-29.3L556.86-28.03 560.76-28.03 560.76-10.99Q560.86 0.44 572.14 0.49L572.14 0.49Q580.73 0.49 582.54-6.54L582.54-6.54Q583.08-8.69 583.08-11.43L583.08-11.43 583.08-28.03 586.98-28.03 586.98-29.3 577.46-29.3 577.46-28.03 581.37-28.03 581.37-11.13Q581.37-1.66 574.34-0.93L574.34-0.93Q573.75-0.88 573.16-0.88L573.16-0.88Q567.21-0.88 565.64-5.91L565.64-5.91Q564.96-8.11 564.96-11.28L564.96-11.28 564.96-28.03 568.82-28.03 568.82-29.3 556.86-29.3ZM617.61 0L626.64 0 626.64-1.27 622.74-1.27 631.08-12.79 638.85-1.27 635.28-1.27 635.28 0 646.66 0Q646.66-1.07 645.88-1.22L645.88-1.22Q645.64-1.27 645.39-1.27L645.39-1.27 643.83-1.27 633.77-16.16 641.34-26.66Q642.27-27.93 643.44-28.03L643.44-28.03Q643.68-28.03 643.98-28.03L643.98-28.03Q645.05-28.03 645.2-28.81L645.2-28.81Q645.25-29.05 645.25-29.3L645.25-29.3 636.75-29.3 636.75-28.03 640.66-28.03 632.99-17.33 625.76-28.03 629.28-28.03 629.28-29.3 617.85-29.3 617.85-28.03 620.88-28.03 630.25-14.06 621.91-2.64Q620.88-1.27 618.88-1.27L618.88-1.27Q617.8-1.27 617.66-0.49L617.66-0.49Q617.61-0.24 617.61 0L617.61 0ZM767.64-1.22L767.64-1.22 764.22-1.22 764.22-19.53 769.84-19.53 769.84-20.75 764.22-20.75 764.22-21.04Q764.22-29.39 766.71-30.52L766.71-30.52Q767.25-30.76 767.88-30.76L767.88-30.76Q769.4-30.76 770.42-28.96L770.42-28.96Q771.3-27.39 771.69-27.1L771.69-27.1Q772.08-26.81 772.57-26.81L772.57-26.81Q774.18-26.81 774.48-28.17L774.48-28.17Q774.53-28.42 774.53-28.61L774.53-28.61Q774.53-30.42 772.08-31.45L772.08-31.45Q770.67-31.98 768.91-31.98L768.91-31.98Q764.32-31.98 762.07-28.17L762.07-28.17Q760.56-25.54 760.56-21.53L760.56-21.53 760.56-20.75 757.14-20.75 757.14-19.53 760.56-19.53 760.56-4.15Q760.56-1.9 759.29-1.46L759.29-1.46Q758.56-1.22 756.9-1.22L756.9-1.22 756.9 0 768.86 0Q768.86-1.07 768.13-1.17L768.13-1.17Q767.93-1.22 767.64-1.22ZM806.23-10.4L806.23-10.4Q806.23-17.97 810.38-19.63L810.38-19.63Q811.45-20.02 812.62-20.02L812.62-20.02Q818.04-20.02 818.92-13.18L818.92-13.18Q819.07-12.01 819.07-10.6L819.07-10.6Q819.07-2.39 814.57-0.98L814.57-0.98Q813.7-0.73 812.77-0.73L812.77-0.73Q807.84-0.73 806.57-6.59L806.57-6.59Q806.23-8.3 806.23-10.4ZM812.77-21.24L812.77-21.24Q808.08-21.24 804.96-18.02L804.96-18.02Q802.07-15.04 802.07-10.6L802.07-10.6Q802.07-4.44 806.57-1.37L806.57-1.37Q809.3 0.49 812.62 0.49L812.62 0.49Q817.31 0.49 820.39-2.83L820.39-2.83Q823.22-5.86 823.22-10.4L823.22-10.4Q823.22-16.55 818.68-19.53L818.68-19.53Q815.99-21.24 812.77-21.24ZM857.02-10.16L857.02-10.16Q857.02-4.25 861.36-1.32L861.36-1.32Q864.05 0.49 867.47 0.49L867.47 0.49Q872.54 0.49 875.13-3.08L875.13-3.08Q875.72-3.91 876.06-4.74L876.06-4.74 874.79-5.18Q872.98-1.32 868.83-0.93L868.83-0.93Q868.44-0.88 868.05-0.88L868.05-0.88Q864.59-0.88 862.63-4.35L862.63-4.35Q861.17-6.98 861.17-10.6L861.17-10.6Q861.17-16.99 864.54-19.14L864.54-19.14Q865.95-20.02 867.66-20.02L867.66-20.02Q870.3-20.02 870.84-17.97L870.84-17.97Q870.93-17.58 871.08-16.75L871.08-16.75Q871.37-14.79 872.15-14.31L872.15-14.31Q872.64-14.06 873.23-14.01L873.23-14.01Q874.89-13.92 875.33-15.38L875.33-15.38Q875.43-15.72 875.43-16.02L875.43-16.02Q875.43-18.51 872.25-20.12L872.25-20.12Q870.01-21.24 867.37-21.24L867.37-21.24Q860.83-21.24 858.24-15.92L858.24-15.92Q857.02-13.38 857.02-10.16ZM931.34-1.22L931.34-1.22 928.9-1.22 928.9-20.75 921.24-20.75 921.24-19.53 925.24-19.53 925.24-8.98Q925.24-4.59 922.16-2.54L922.16-2.54Q920.8-1.61 919.33-1.61L919.33-1.61Q915.33-1.61 914.69-5.71L914.69-5.71Q914.6-6.4 914.6-7.18L914.6-7.18 914.6-20.75 907.17-20.75 907.17-19.53 910.93-19.53 910.93-7.91Q910.98 0.44 917.92 0.49L917.92 0.49Q921.58 0.49 923.92-2.49L923.92-2.49Q924.8-3.61 925.34-4.98L925.34-4.98 925.68 0 932.56 0Q932.56-1.07 931.83-1.17L931.83-1.17Q931.64-1.22 931.34-1.22ZM973.05-0.83L973.05-0.83Q976.42-0.83 977.6-2.88L977.6-2.88Q978.03-3.61 978.03-4.49L978.03-4.49Q978.03-6.54 975.06-8.01L975.06-8.01Q974.42-8.35 972.96-8.98L972.96-8.98Q968.95-10.64 967.63-12.11L967.63-12.11Q966.22-13.72 966.22-15.87L966.22-15.87Q966.22-19.24 969.93-20.61L969.93-20.61Q971.64-21.24 973.64-21.24L973.64-21.24Q976.86-21.24 979.21-19.87L979.21-19.87Q979.21-21.29 979.89-21.48L979.89-21.48Q980.18-21.53 980.52-21.53L980.52-21.53 980.52-15.43 979.26-15.43Q979.16-19.92 974.27-19.97L974.27-19.97Q970.61-19.97 969.73-17.82L969.73-17.82Q969.49-17.24 969.49-16.6L969.49-16.6Q969.49-14.5 972.52-13.04L972.52-13.04Q973.2-12.7 974.67-12.11L974.67-12.11Q978.62-10.5 979.94-9.03L979.94-9.03Q981.35-7.47 981.35-5.32L981.35-5.32Q981.35-1.37 977.16-0.05L977.16-0.05Q975.54 0.49 973.64 0.49L973.64 0.49Q970.12 0.44 967.54-1.27L967.54-1.27Q967.54 0 966.9 0.2L966.9 0.2Q966.61 0.24 966.22 0.24L966.22 0.24 966.22-7.18 967.59-7.18Q967.68-0.88 973.05-0.83ZM1025.36-20.02L1025.36-20.02Q1028.78-20.02 1029.9-17.14L1029.9-17.14Q1030.29-16.21 1030.29-15.14L1030.29-15.14Q1030.29-12.7 1027.95-12.16L1027.95-12.16Q1026.73-11.91 1024.48-11.96L1024.48-11.96 1019.31-12.11Q1019.55-17.72 1022.97-19.43L1022.97-19.43Q1024.09-20.02 1025.36-20.02ZM1033.86-4.69L1033.86-4.69 1032.64-5.13Q1030.93-1.42 1027.12-0.93L1027.12-0.93Q1026.63-0.88 1026.19-0.88L1026.19-0.88Q1021.06-0.88 1019.74-6.98L1019.74-6.98Q1019.35-8.69 1019.31-10.74L1019.31-10.74 1025.16-10.64Q1031.12-10.55 1032.83-11.77L1032.83-11.77Q1034.15-12.74 1034.15-14.55L1034.15-14.55Q1034.15-17.87 1030.78-19.82L1030.78-19.82Q1028.39-21.24 1025.26-21.24L1025.26-21.24Q1019.16-21.24 1016.52-16.16L1016.52-16.16Q1015.15-13.53 1015.15-10.21L1015.15-10.21Q1015.15-4.15 1019.5-1.22L1019.5-1.22Q1022.09 0.49 1025.41 0.49L1025.41 0.49Q1030.68 0.49 1033.17-3.32L1033.17-3.32Q1033.56-4 1033.86-4.69ZM1083.96-5.18L1084.35 0 1091.34 0Q1091.34-1.07 1090.6-1.17L1090.6-1.17Q1090.41-1.22 1090.12-1.22L1090.12-1.22 1087.68-1.22 1087.58-31.74 1079.28-31.74 1079.28-30.52 1083.92-30.52 1083.92-18.6Q1081.52-21.24 1077.47-21.24L1077.47-21.24Q1072.1-21.24 1069.36-16.46L1069.36-16.46Q1067.7-13.53 1067.7-9.86L1067.7-9.86Q1067.7-3.81 1071.51-1.03L1071.51-1.03Q1073.66 0.49 1076.25 0.49L1076.25 0.49Q1081.57 0.39 1083.96-5.18L1083.96-5.18ZM1071.85-10.45L1071.85-10.45Q1071.85-17.33 1075.57-19.38L1075.57-19.38Q1076.74-20.02 1078.15-20.02L1078.15-20.02Q1081.72-20.02 1083.23-16.21L1083.23-16.21Q1084.06-14.16 1084.06-11.38L1084.06-11.38Q1084.06-5.52 1081.13-2.88L1081.13-2.88Q1079.57-1.46 1077.57-1.46L1077.57-1.46Q1073.56-1.46 1072.34-6.35L1072.34-6.35Q1071.85-8.15 1071.85-10.45Z" opacity="1" transform="matrix(1,0,0,1,0,0)" fill="#2a2c35" class="slogan-text-1" data-fill-palette-color="secondary" id="text-1"></path></svg></g></svg></g></svg></g></svg></g></svg></g><defs></defs></svg><rect width="395.52" height="74.23994736917581" fill="none" stroke="none" visibility="hidden"></rect></g></svg></g></svg>